<?xml version="1.0" encoding="UTF-8" standalone="no"?>
<svg width="40px" height="40px" viewBox="0 0 40 40" version="1.1" xmlns="http://www.w3.org/2000/svg" xmlns:xlink="http://www.w3.org/1999/xlink">
    <!-- Generator: Sketch 46.2 (44496) - http://www.bohemiancoding.com/sketch -->
    <title>Loader-SVG</title>
    <desc>Created with Sketch.</desc>
    <defs></defs>
    <g id="Page-1" stroke="none" stroke-width="1" fill="none" fill-rule="evenodd">
        <g id="Loader-SVG">
            <path d="M0.0246226708,21 C0.546877058,31.5811115 9.31143642,40 20.0469484,40 C30.7824603,40 39.5470197,31.5811115 40.069274,21 L36.1195471,21 C35.6020401,29.4069704 28.6039197,36.0655738 20.0469484,36.0655738 C11.489977,36.0655738 4.49185657,29.4069704 3.9743496,21 L0.0246226708,21 Z" id="Oval-Copy-3" fill="#E2113F"></path>
            <path d="M0.0987504852,5.96189764e-14 C1.10219934,10.1066454 9.6293038,18 20,18 C30.3706962,18 38.8978007,10.1066454 39.9012495,-3.44169138e-15 L35.9422989,-3.99680289e-15 C34.9577101,7.92893783 28.1954991,14.0655738 20,14.0655738 C11.8045009,14.0655738 5.0422899,7.92893783 4.05770109,-4.5519144e-15 L0.0987504852,-3.99680289e-15 Z" id="Oval-Copy-2" fill="#7D005F" transform="translate(20.000000, 9.000000) rotate(180.000000) translate(-20.000000, -9.000000) "></path>
        </g>
    </g>
</svg>
